<?xml version="1.0" encoding="UTF-8" standalone="no"?>
<!DOCTYPE svg PUBLIC "-//W3C//DTD SVG 1.1//EN"
 "http://www.w3.org/Graphics/SVG/1.1/DTD/svg11.dtd">
<!-- Generated by graphviz version 12.2.1 (20241206.2353)
 -->
<!-- Pages: 1 -->
<svg width="574pt" height="506pt"
 viewBox="0.00 0.00 573.94 506.00" xmlns="http://www.w3.org/2000/svg" xmlns:xlink="http://www.w3.org/1999/xlink">
<g id="graph0" class="graph" transform="scale(1 1) rotate(0) translate(4 502)">
<polygon fill="white" stroke="none" points="-4,4 -4,-502 569.94,-502 569.94,4 -4,4"/>
<!-- WC -->
<g id="node1" class="node">
<title>WC</title>
<ellipse fill="none" stroke="black" cx="298.69" cy="-480" rx="90.25" ry="18"/>
<text text-anchor="middle" x="298.69" y="-474.95" font-family="Times New Roman,serif" font-size="14.00">WebClient (Browser)</text>
</g>
<!-- WS -->
<g id="node2" class="node">
<title>WS</title>
<ellipse fill="none" stroke="black" cx="298.69" cy="-391.5" rx="98.44" ry="18"/>
<text text-anchor="middle" x="298.69" y="-386.45" font-family="Times New Roman,serif" font-size="14.00">WebServer (Flask App)</text>
</g>
<!-- WC&#45;&gt;WS -->
<g id="edge1" class="edge">
<title>WC&#45;&gt;WS</title>
<path fill="none" stroke="black" d="M255.71,-463.93C247.24,-458.93 239.43,-452.41 234.44,-444 227.46,-432.25 234.66,-422.09 246.42,-413.97"/>
<polygon fill="black" stroke="black" points="248.04,-417.08 254.84,-408.95 244.46,-411.07 248.04,-417.08"/>
<text text-anchor="middle" x="288.06" y="-430.7" font-family="Times New Roman,serif" font-size="14.00">Interview recording</text>
</g>
<!-- WS&#45;&gt;WC -->
<g id="edge14" class="edge">
<title>WS&#45;&gt;WC</title>
<path fill="none" stroke="black" d="M326.14,-409.05C338,-418.47 347.89,-430.96 341.69,-444 339.79,-447.99 337.19,-451.68 334.2,-455.04"/>
<polygon fill="black" stroke="black" points="332.06,-452.25 327.23,-461.68 336.89,-457.31 332.06,-452.25"/>
<text text-anchor="middle" x="405.47" y="-430.7" font-family="Times New Roman,serif" font-size="14.00">Diagnosis presentation</text>
</g>
<!-- DB -->
<g id="node3" class="node">
<title>DB</title>
<path fill="none" stroke="black" d="M390.81,-121.23C390.81,-123.03 362.52,-124.5 327.69,-124.5 292.86,-124.5 264.56,-123.03 264.56,-121.23 264.56,-121.23 264.56,-91.77 264.56,-91.77 264.56,-89.97 292.86,-88.5 327.69,-88.5 362.52,-88.5 390.81,-89.97 390.81,-91.77 390.81,-91.77 390.81,-121.23 390.81,-121.23"/>
<path fill="none" stroke="black" d="M390.81,-121.23C390.81,-119.42 362.52,-117.95 327.69,-117.95 292.86,-117.95 264.56,-119.42 264.56,-121.23"/>
<text text-anchor="middle" x="327.69" y="-101.45" font-family="Times New Roman,serif" font-size="14.00">Document Database</text>
</g>
<!-- WS&#45;&gt;DB -->
<g id="edge2" class="edge">
<title>WS&#45;&gt;DB</title>
<path fill="none" stroke="black" d="M374.38,-379.74C402.24,-374.13 429.11,-366.17 437.69,-355.5 497.04,-281.7 500.16,-218.53 443.69,-142.5 433.5,-128.79 418.11,-120.25 401.83,-114.99"/>
<polygon fill="black" stroke="black" points="403.08,-111.71 392.51,-112.39 401.2,-118.45 403.08,-111.71"/>
<text text-anchor="middle" x="525.06" y="-243.95" font-family="Times New Roman,serif" font-size="14.00">Save recording</text>
</g>
<!-- RPC1 -->
<g id="node6" class="node">
<title>RPC1</title>
<ellipse fill="none" stroke="black" cx="87.69" cy="-249" rx="87.69" ry="18"/>
<text text-anchor="middle" x="87.69" y="-243.95" font-family="Times New Roman,serif" font-size="14.00">RPC bridge for ASR</text>
</g>
<!-- WS&#45;&gt;RPC1 -->
<g id="edge3" class="edge">
<title>WS&#45;&gt;RPC1</title>
<path fill="none" stroke="black" stroke-dasharray="5,2" d="M211.9,-382.64C172.05,-377.32 130.49,-368.78 116.19,-355.5 95.14,-335.96 89.02,-302.62 87.53,-278.65"/>
<polygon fill="black" stroke="black" points="91.04,-278.79 87.18,-268.93 84.04,-279.04 91.04,-278.79"/>
<text text-anchor="middle" x="173.94" y="-342.2" font-family="Times New Roman,serif" font-size="14.00">Transcription request</text>
</g>
<!-- RPC2 -->
<g id="node7" class="node">
<title>RPC2</title>
<ellipse fill="none" stroke="black" cx="280.69" cy="-303" rx="87.69" ry="18"/>
<text text-anchor="middle" x="280.69" y="-297.95" font-family="Times New Roman,serif" font-size="14.00">RPC bridge for NLP</text>
</g>
<!-- WS&#45;&gt;RPC2 -->
<g id="edge8" class="edge">
<title>WS&#45;&gt;RPC2</title>
<path fill="none" stroke="black" stroke-dasharray="5,2" d="M321.69,-373.95C332.36,-364.14 341.36,-351.27 334.69,-339 332.22,-334.46 328.88,-330.42 325.07,-326.84"/>
<polygon fill="black" stroke="black" points="327.31,-324.15 317.3,-320.69 322.96,-329.64 327.31,-324.15"/>
<text text-anchor="middle" x="385.35" y="-342.2" font-family="Times New Roman,serif" font-size="14.00">Diagnosis request</text>
</g>
<!-- ASR -->
<g id="node4" class="node">
<title>ASR</title>
<ellipse fill="none" stroke="black" cx="235.69" cy="-18" rx="93.83" ry="18"/>
<text text-anchor="middle" x="235.69" y="-12.95" font-family="Times New Roman,serif" font-size="14.00">ASR (Speech&#45;to&#45;Text)</text>
</g>
<!-- DB&#45;&gt;ASR -->
<g id="edge6" class="edge">
<title>DB&#45;&gt;ASR</title>
<path fill="none" stroke="black" d="M374.76,-88.83C392.82,-79.82 406.74,-67.73 395.69,-54 386.4,-42.46 358.16,-34.51 327.94,-29.15"/>
<polygon fill="black" stroke="black" points="328.68,-25.73 318.25,-27.54 327.54,-32.63 328.68,-25.73"/>
<text text-anchor="middle" x="440.86" y="-57.2" font-family="Times New Roman,serif" font-size="14.00">Recording data</text>
</g>
<!-- NLP -->
<g id="node5" class="node">
<title>NLP</title>
<ellipse fill="none" stroke="black" cx="234.69" cy="-195" rx="73.87" ry="18"/>
<text text-anchor="middle" x="234.69" y="-189.95" font-family="Times New Roman,serif" font-size="14.00">NLP (Diagnosis)</text>
</g>
<!-- DB&#45;&gt;NLP -->
<g id="edge11" class="edge">
<title>DB&#45;&gt;NLP</title>
<path fill="none" stroke="black" d="M336.69,-124.7C340.96,-135.46 343.76,-149.1 336.69,-159 329.61,-168.92 319.54,-176.05 308.45,-181.18"/>
<polygon fill="black" stroke="black" points="307.43,-177.82 299.45,-184.79 310.03,-184.32 307.43,-177.82"/>
<text text-anchor="middle" x="390.5" y="-145.7" font-family="Times New Roman,serif" font-size="14.00">Transcription data</text>
</g>
<!-- ASR&#45;&gt;DB -->
<g id="edge5" class="edge">
<title>ASR&#45;&gt;DB</title>
<path fill="none" stroke="black" stroke-dasharray="5,2" d="M197.07,-34.66C179.51,-44.08 164.83,-56.86 175.69,-70.5 185.8,-83.21 219.81,-91.69 253.09,-97.12"/>
<polygon fill="black" stroke="black" points="252.41,-100.55 262.82,-98.61 253.47,-93.63 252.41,-100.55"/>
<text text-anchor="middle" x="225.19" y="-57.2" font-family="Times New Roman,serif" font-size="14.00">Recording request</text>
</g>
<!-- ASR&#45;&gt;DB -->
<g id="edge7" class="edge">
<title>ASR&#45;&gt;DB</title>
<path fill="none" stroke="black" d="M254.87,-35.94C261.23,-41.63 268.31,-48.04 274.69,-54 283.69,-62.41 293.4,-71.75 302.01,-80.15"/>
<polygon fill="black" stroke="black" points="299.52,-82.6 309.11,-87.1 304.41,-77.6 299.52,-82.6"/>
<text text-anchor="middle" x="340.02" y="-57.2" font-family="Times New Roman,serif" font-size="14.00">Save transcription</text>
</g>
<!-- NLP&#45;&gt;DB -->
<g id="edge10" class="edge">
<title>NLP&#45;&gt;DB</title>
<path fill="none" stroke="black" stroke-dasharray="5,2" d="M223.47,-176.89C217.97,-166.17 213.93,-152.53 221.19,-142.5 229.17,-131.48 240.74,-123.86 253.33,-118.62"/>
<polygon fill="black" stroke="black" points="254.45,-121.94 262.68,-115.26 252.08,-115.35 254.45,-121.94"/>
<text text-anchor="middle" x="278.94" y="-145.7" font-family="Times New Roman,serif" font-size="14.00">Transcription request</text>
</g>
<!-- NLP&#45;&gt;RPC2 -->
<g id="edge12" class="edge">
<title>NLP&#45;&gt;RPC2</title>
<path fill="none" stroke="black" d="M223.87,-213.11C215.85,-228.19 207.86,-250.29 217.69,-267 220.67,-272.06 224.67,-276.44 229.22,-280.22"/>
<polygon fill="black" stroke="black" points="227.1,-283.01 237.29,-285.9 231.13,-277.28 227.1,-283.01"/>
<text text-anchor="middle" x="264.19" y="-243.95" font-family="Times New Roman,serif" font-size="14.00">Diagnosis results</text>
</g>
<!-- RPC1&#45;&gt;ASR -->
<g id="edge4" class="edge">
<title>RPC1&#45;&gt;ASR</title>
<path fill="none" stroke="black" stroke-dasharray="5,2" d="M86.52,-230.86C85.7,-209.4 86.37,-171.87 98.19,-142.5 116.85,-96.1 129.12,-85.84 167.69,-54 173.88,-48.89 180.95,-44.23 188.13,-40.11"/>
<polygon fill="black" stroke="black" points="189.45,-43.38 196.58,-35.54 186.12,-37.22 189.45,-43.38"/>
<text text-anchor="middle" x="155.94" y="-145.7" font-family="Times New Roman,serif" font-size="14.00">Transcription request</text>
</g>
<!-- RPC2&#45;&gt;WS -->
<g id="edge13" class="edge">
<title>RPC2&#45;&gt;WS</title>
<path fill="none" stroke="black" d="M253,-320.53C240.64,-330.13 230.33,-342.8 237.69,-355.5 240.45,-360.27 244.13,-364.44 248.33,-368.08"/>
<polygon fill="black" stroke="black" points="246.17,-370.84 256.3,-373.94 250.31,-365.2 246.17,-370.84"/>
<text text-anchor="middle" x="284.19" y="-342.2" font-family="Times New Roman,serif" font-size="14.00">Diagnosis results</text>
</g>
<!-- RPC2&#45;&gt;NLP -->
<g id="edge9" class="edge">
<title>RPC2&#45;&gt;NLP</title>
<path fill="none" stroke="black" stroke-dasharray="5,2" d="M302.13,-285.13C307.21,-279.92 311.95,-273.75 314.69,-267 320.71,-252.17 323.45,-244.39 314.69,-231 309.96,-223.77 303.38,-218.03 296,-213.47"/>
<polygon fill="black" stroke="black" points="298.11,-210.63 287.64,-209.01 294.82,-216.81 298.11,-210.63"/>
<text text-anchor="middle" x="368.65" y="-243.95" font-family="Times New Roman,serif" font-size="14.00">Diagnosis request</text>
</g>
</g>
</svg>
