<?xml version="1.0" encoding="UTF-8" standalone="no"?>
<!DOCTYPE svg PUBLIC "-//W3C//DTD SVG 1.1//EN"
 "http://www.w3.org/Graphics/SVG/1.1/DTD/svg11.dtd">
<!-- Generated by graphviz version 12.2.1 (20241206.2353)
 -->
<!-- Pages: 1 -->
<svg width="605pt" height="575pt"
 viewBox="0.00 0.00 604.91 575.00" xmlns="http://www.w3.org/2000/svg" xmlns:xlink="http://www.w3.org/1999/xlink">
<g id="graph0" class="graph" transform="scale(1 1) rotate(0) translate(4 571)">
<polygon fill="white" stroke="none" points="-4,4 -4,-571 600.91,-571 600.91,4 -4,4"/>
<!-- WC -->
<g id="node1" class="node">
<title>WC</title>
<ellipse fill="none" stroke="black" cx="340.66" cy="-549" rx="84.62" ry="18"/>
<text text-anchor="middle" x="340.66" y="-543.95" font-family="Times New Roman,serif" font-size="14.00">WebClient (Lekarz)</text>
</g>
<!-- WS -->
<g id="node3" class="node">
<title>WS</title>
<ellipse fill="none" stroke="black" cx="255.66" cy="-460.5" rx="51.86" ry="18"/>
<text text-anchor="middle" x="255.66" y="-455.45" font-family="Times New Roman,serif" font-size="14.00">WebServer</text>
</g>
<!-- WC&#45;&gt;WS -->
<g id="edge1" class="edge">
<title>WC&#45;&gt;WS</title>
<path fill="none" stroke="black" d="M323.86,-530.91C311.25,-518.07 293.78,-500.3 279.69,-485.95"/>
<polygon fill="black" stroke="black" points="282.41,-483.73 272.9,-479.05 277.41,-488.63 282.41,-483.73"/>
<text text-anchor="middle" x="366.52" y="-499.7" font-family="Times New Roman,serif" font-size="14.00">Nagrywanie rozmowy</text>
</g>
<!-- DB -->
<g id="node2" class="node">
<title>DB</title>
<path fill="none" stroke="black" d="M174.03,-209.73C174.03,-211.53 154.14,-213 129.66,-213 105.17,-213 85.28,-211.53 85.28,-209.73 85.28,-209.73 85.28,-180.27 85.28,-180.27 85.28,-178.47 105.17,-177 129.66,-177 154.14,-177 174.03,-178.47 174.03,-180.27 174.03,-180.27 174.03,-209.73 174.03,-209.73"/>
<path fill="none" stroke="black" d="M174.03,-209.73C174.03,-207.92 154.14,-206.45 129.66,-206.45 105.17,-206.45 85.28,-207.92 85.28,-209.73"/>
<text text-anchor="middle" x="129.66" y="-189.95" font-family="Times New Roman,serif" font-size="14.00">Baza Danych</text>
</g>
<!-- NLP -->
<g id="node5" class="node">
<title>NLP</title>
<ellipse fill="none" stroke="black" cx="129.66" cy="-106.5" rx="129.66" ry="18"/>
<text text-anchor="middle" x="129.66" y="-101.45" font-family="Times New Roman,serif" font-size="14.00">Moduł NLP (Analiza diagnozy)</text>
</g>
<!-- DB&#45;&gt;NLP -->
<g id="edge10" class="edge">
<title>DB&#45;&gt;NLP</title>
<path fill="none" stroke="black" d="M129.66,-176.91C129.66,-165.26 129.66,-149.55 129.66,-136.02"/>
<polygon fill="black" stroke="black" points="133.16,-136.36 129.66,-126.36 126.16,-136.36 133.16,-136.36"/>
<text text-anchor="middle" x="187.78" y="-145.7" font-family="Times New Roman,serif" font-size="14.00">Pobranie transkrypcji</text>
</g>
<!-- WS&#45;&gt;DB -->
<g id="edge2" class="edge">
<title>WS&#45;&gt;DB</title>
<path fill="none" stroke="red" stroke-dasharray="5,2" d="M211.83,-450.57C176.61,-441.2 128.28,-423.09 98.66,-390 60.83,-347.75 51.11,-318.74 70.66,-265.5 76.64,-249.2 88.33,-234.11 99.73,-222.19"/>
<polygon fill="red" stroke="red" points="99.52,-222.4 100.98,-215.34 108.06,-213.97 106.6,-221.03 99.52,-222.4"/>
<text text-anchor="middle" x="104.22" y="-322.7" font-family="Times New Roman,serif" font-size="14.00">Zapis nagrania</text>
</g>
<!-- RPC1 -->
<g id="node6" class="node">
<title>RPC1</title>
<ellipse fill="none" stroke="black" cx="208.66" cy="-372" rx="101" ry="18"/>
<text text-anchor="middle" x="208.66" y="-366.95" font-family="Times New Roman,serif" font-size="14.00">Mostek jsonRPC (ASR)</text>
</g>
<!-- WS&#45;&gt;RPC1 -->
<g id="edge3" class="edge">
<title>WS&#45;&gt;RPC1</title>
<path fill="none" stroke="black" d="M238.15,-443.27C232.97,-437.73 227.69,-431.22 223.91,-424.5 219.92,-417.4 216.87,-409.15 214.6,-401.36"/>
<polygon fill="black" stroke="black" points="218.05,-400.74 212.16,-391.93 211.27,-402.49 218.05,-400.74"/>
<text text-anchor="middle" x="279.78" y="-411.2" font-family="Times New Roman,serif" font-size="14.00">Żądanie transkrypcji</text>
</g>
<!-- RPC2 -->
<g id="node7" class="node">
<title>RPC2</title>
<ellipse fill="none" stroke="black" cx="279.66" cy="-18" rx="100.48" ry="18"/>
<text text-anchor="middle" x="279.66" y="-12.95" font-family="Times New Roman,serif" font-size="14.00">Mostek jsonRPC (NLP)</text>
</g>
<!-- WS&#45;&gt;RPC2 -->
<g id="edge6" class="edge">
<title>WS&#45;&gt;RPC2</title>
<path fill="none" stroke="black" d="M297.13,-449.29C311.09,-443.99 325.66,-436.09 335.66,-424.5 351.15,-406.54 349.66,-396.72 349.66,-373 349.66,-373 349.66,-373 349.66,-105.5 349.66,-81.78 349.8,-73.04 335.66,-54 332.28,-49.46 328.13,-45.36 323.62,-41.72"/>
<polygon fill="black" stroke="black" points="326.02,-39.13 315.85,-36.14 321.93,-44.81 326.02,-39.13"/>
<text text-anchor="middle" x="407.41" y="-234.2" font-family="Times New Roman,serif" font-size="14.00">Żądanie analizy NLP</text>
</g>
<!-- ASR -->
<g id="node4" class="node">
<title>ASR</title>
<ellipse fill="none" stroke="black" cx="200.66" cy="-283.5" rx="120.96" ry="18"/>
<text text-anchor="middle" x="200.66" y="-278.45" font-family="Times New Roman,serif" font-size="14.00">Moduł ASR (Speech&#45;to&#45;Text)</text>
</g>
<!-- ASR&#45;&gt;DB -->
<g id="edge5" class="edge">
<title>ASR&#45;&gt;DB</title>
<path fill="none" stroke="black" d="M186.63,-265.41C176.49,-253.05 162.59,-236.13 151.07,-222.08"/>
<polygon fill="black" stroke="black" points="153.91,-220.03 144.86,-214.52 148.5,-224.47 153.91,-220.03"/>
<text text-anchor="middle" x="219.14" y="-234.2" font-family="Times New Roman,serif" font-size="14.00">Zapis transkryptu</text>
</g>
<!-- NLP&#45;&gt;RPC2 -->
<g id="edge8" class="edge">
<title>NLP&#45;&gt;RPC2</title>
<path fill="none" stroke="black" d="M85.81,-89.19C67.52,-79.94 52.91,-67.52 64.41,-54 78.77,-37.11 125.03,-28.35 171,-23.82"/>
<polygon fill="black" stroke="black" points="171.2,-27.31 180.84,-22.92 170.56,-20.34 171.2,-27.31"/>
<text text-anchor="middle" x="124.03" y="-57.2" font-family="Times New Roman,serif" font-size="14.00">Przekazanie wyników</text>
</g>
<!-- RPC1&#45;&gt;ASR -->
<g id="edge4" class="edge">
<title>RPC1&#45;&gt;ASR</title>
<path fill="none" stroke="black" d="M207.08,-353.91C206,-342.26 204.55,-326.55 203.3,-313.02"/>
<polygon fill="black" stroke="black" points="206.81,-312.99 202.4,-303.36 199.84,-313.64 206.81,-312.99"/>
<text text-anchor="middle" x="262.75" y="-322.7" font-family="Times New Roman,serif" font-size="14.00">Przetwarzanie mowy</text>
</g>
<!-- RPC2&#45;&gt;WC -->
<g id="edge9" class="edge">
<title>RPC2&#45;&gt;WC</title>
<path fill="none" stroke="blue" stroke-width="2" d="M373.68,-24.63C426,-33.44 480.66,-54.78 480.66,-105.5 480.66,-461.5 480.66,-461.5 480.66,-461.5 480.66,-498.3 445.23,-519.96 410.01,-532.41"/>
<polygon fill="blue" stroke="blue" stroke-width="2" points="401.94,-535.07 410.03,-527.66 404.22,-533.79 411.28,-531.46 411.44,-531.94 411.59,-532.41 404.53,-534.74 412.85,-536.21 401.94,-535.07"/>
<text text-anchor="middle" x="538.78" y="-278.45" font-family="Times New Roman,serif" font-size="14.00">Prezentacja wyników</text>
</g>
<!-- RPC2&#45;&gt;NLP -->
<g id="edge7" class="edge">
<title>RPC2&#45;&gt;NLP</title>
<path fill="none" stroke="black" d="M244.9,-35.21C233.69,-40.8 221.33,-47.34 210.41,-54 199.74,-60.5 198.07,-63.6 187.66,-70.5 181.47,-74.6 174.8,-78.81 168.27,-82.82"/>
<polygon fill="black" stroke="black" points="166.9,-79.56 160.16,-87.74 170.53,-85.55 166.9,-79.56"/>
<text text-anchor="middle" x="273.03" y="-57.2" font-family="Times New Roman,serif" font-size="14.00">Generowanie diagnozy</text>
</g>
</g>
</svg>
