<?xml version="1.0" encoding="UTF-8" standalone="no"?>
<!DOCTYPE svg PUBLIC "-//W3C//DTD SVG 1.1//EN"
 "http://www.w3.org/Graphics/SVG/1.1/DTD/svg11.dtd">
<!-- Generated by graphviz version 12.2.1 (20241206.2353)
 -->
<!-- Pages: 1 -->
<svg width="946pt" height="350pt"
 viewBox="0.00 0.00 945.94 350.00" xmlns="http://www.w3.org/2000/svg" xmlns:xlink="http://www.w3.org/1999/xlink">
<g id="graph0" class="graph" transform="scale(1 1) rotate(0) translate(4 346)">
<polygon fill="white" stroke="none" points="-4,4 -4,-346 941.94,-346 941.94,4 -4,4"/>
<g id="clust2" class="cluster">
<title>cluster_webapp</title>
<polygon fill="none" stroke="black" stroke-dasharray="5,2" points="347.37,-169 347.37,-334 635.37,-334 635.37,-169 347.37,-169"/>
<text text-anchor="middle" x="491.37" y="-316.7" font-family="Times New Roman,serif" font-size="14.00">Web App</text>
</g>
<!-- RPC1 -->
<g id="node1" class="node">
<title>RPC1</title>
<polygon fill="none" stroke="black" points="189.62,-124.5 61.12,-124.5 61.12,-88.5 189.62,-88.5 189.62,-124.5"/>
<text text-anchor="middle" x="125.37" y="-101.45" font-family="Times New Roman,serif" font-size="14.00">RPC bridge for ASR</text>
</g>
<!-- ASR -->
<g id="node4" class="node">
<title>ASR</title>
<ellipse fill="none" stroke="black" cx="196.37" cy="-18" rx="93.83" ry="18"/>
<text text-anchor="middle" x="196.37" y="-12.95" font-family="Times New Roman,serif" font-size="14.00">ASR (Speech&#45;to&#45;Text)</text>
</g>
<!-- RPC1&#45;&gt;ASR -->
<g id="edge4" class="edge">
<title>RPC1&#45;&gt;ASR</title>
<path fill="none" stroke="black" stroke-dasharray="5,2" d="M60.71,-98.18C22.73,-91.24 -14.23,-78.13 5.87,-54 18.11,-39.3 57.11,-30.75 96.65,-25.79"/>
<polygon fill="black" stroke="black" points="97.05,-29.27 106.57,-24.63 96.23,-22.32 97.05,-29.27"/>
<text text-anchor="middle" x="63.62" y="-57.2" font-family="Times New Roman,serif" font-size="14.00">Transcription request</text>
</g>
<!-- DB -->
<g id="node2" class="node">
<title>DB</title>
<path fill="none" stroke="black" d="M444.49,-121.23C444.49,-123.03 416.2,-124.5 381.37,-124.5 346.54,-124.5 318.24,-123.03 318.24,-121.23 318.24,-121.23 318.24,-91.77 318.24,-91.77 318.24,-89.97 346.54,-88.5 381.37,-88.5 416.2,-88.5 444.49,-89.97 444.49,-91.77 444.49,-91.77 444.49,-121.23 444.49,-121.23"/>
<path fill="none" stroke="black" d="M444.49,-121.23C444.49,-119.42 416.2,-117.95 381.37,-117.95 346.54,-117.95 318.24,-119.42 318.24,-121.23"/>
<text text-anchor="middle" x="381.37" y="-101.45" font-family="Times New Roman,serif" font-size="14.00">Document Database</text>
</g>
<!-- DB&#45;&gt;ASR -->
<g id="edge6" class="edge">
<title>DB&#45;&gt;ASR</title>
<path fill="none" stroke="black" d="M317.87,-100.44C251.13,-94.46 154.22,-83.64 142.87,-70.5 134.2,-60.47 141.12,-50.19 152.51,-41.48"/>
<polygon fill="black" stroke="black" points="154.31,-44.49 160.65,-36 150.4,-38.68 154.31,-44.49"/>
<text text-anchor="middle" x="184.12" y="-57.2" font-family="Times New Roman,serif" font-size="14.00">Recording data</text>
</g>
<!-- NLP -->
<g id="node5" class="node">
<title>NLP</title>
<ellipse fill="none" stroke="black" cx="683.37" cy="-18" rx="73.87" ry="18"/>
<text text-anchor="middle" x="683.37" y="-12.95" font-family="Times New Roman,serif" font-size="14.00">NLP (Diagnosis)</text>
</g>
<!-- DB&#45;&gt;NLP -->
<g id="edge11" class="edge">
<title>DB&#45;&gt;NLP</title>
<path fill="none" stroke="black" d="M427.71,-88.68C440.52,-83.43 454.23,-77.24 466.37,-70.5 477.37,-64.4 477.78,-58.9 489.37,-54 524.77,-39.01 566.47,-30.44 602.11,-25.54"/>
<polygon fill="black" stroke="black" points="602.48,-29.02 611.95,-24.26 601.58,-22.08 602.48,-29.02"/>
<text text-anchor="middle" x="538.87" y="-57.2" font-family="Times New Roman,serif" font-size="14.00">Transcription data</text>
</g>
<!-- RPC2 -->
<g id="node3" class="node">
<title>RPC2</title>
<polygon fill="none" stroke="black" points="811.62,-124.5 683.12,-124.5 683.12,-88.5 811.62,-88.5 811.62,-124.5"/>
<text text-anchor="middle" x="747.37" y="-101.45" font-family="Times New Roman,serif" font-size="14.00">RPC bridge for NLP</text>
</g>
<!-- RPC2&#45;&gt;NLP -->
<g id="edge9" class="edge">
<title>RPC2&#45;&gt;NLP</title>
<path fill="none" stroke="black" stroke-dasharray="5,2" d="M744.8,-88.03C742.59,-77.43 738.56,-64.05 731.37,-54 728.23,-49.62 724.38,-45.57 720.23,-41.89"/>
<polygon fill="black" stroke="black" points="722.62,-39.32 712.61,-35.84 718.26,-44.8 722.62,-39.32"/>
<text text-anchor="middle" x="787.86" y="-57.2" font-family="Times New Roman,serif" font-size="14.00">Diagnosis request</text>
</g>
<!-- WS -->
<g id="node7" class="node">
<title>WS</title>
<ellipse fill="none" stroke="black" cx="478.37" cy="-195" rx="98.44" ry="18"/>
<text text-anchor="middle" x="478.37" y="-189.95" font-family="Times New Roman,serif" font-size="14.00">WebServer (Flask App)</text>
</g>
<!-- RPC2&#45;&gt;WS -->
<g id="edge13" class="edge">
<title>RPC2&#45;&gt;WS</title>
<path fill="none" stroke="black" d="M682.94,-115.42C649.04,-120.8 607.2,-129.38 571.37,-142.5 551.08,-149.93 529.91,-161.33 512.9,-171.51"/>
<polygon fill="black" stroke="black" points="511.39,-168.33 504.69,-176.54 515.05,-174.3 511.39,-168.33"/>
<text text-anchor="middle" x="617.87" y="-145.7" font-family="Times New Roman,serif" font-size="14.00">Diagnosis results</text>
</g>
<!-- ASR&#45;&gt;DB -->
<g id="edge5" class="edge">
<title>ASR&#45;&gt;DB</title>
<path fill="none" stroke="black" stroke-dasharray="5,2" d="M210.27,-36.16C220.3,-47.47 234.78,-61.75 250.37,-70.5 267.61,-80.18 287.65,-87.27 306.79,-92.44"/>
<polygon fill="black" stroke="black" points="305.9,-95.83 316.45,-94.89 307.62,-89.04 305.9,-95.83"/>
<text text-anchor="middle" x="299.87" y="-57.2" font-family="Times New Roman,serif" font-size="14.00">Recording request</text>
</g>
<!-- ASR&#45;&gt;DB -->
<g id="edge7" class="edge">
<title>ASR&#45;&gt;DB</title>
<path fill="none" stroke="black" d="M280.75,-26.09C304.57,-31.2 329.41,-39.75 349.37,-54 357.87,-60.07 364.58,-69.16 369.62,-78.03"/>
<polygon fill="black" stroke="black" points="366.43,-79.47 374.09,-86.79 372.67,-76.29 366.43,-79.47"/>
<text text-anchor="middle" x="413.23" y="-57.2" font-family="Times New Roman,serif" font-size="14.00">Save transcription</text>
</g>
<!-- NLP&#45;&gt;DB -->
<g id="edge10" class="edge">
<title>NLP&#45;&gt;DB</title>
<path fill="none" stroke="black" stroke-dasharray="5,2" d="M647.87,-34.25C636.07,-39.87 623.09,-46.67 611.87,-54 602.36,-60.21 602.67,-65.73 592.37,-70.5 549.86,-90.17 498.01,-98.95 456.35,-102.8"/>
<polygon fill="black" stroke="black" points="456.07,-99.31 446.39,-103.63 456.65,-106.29 456.07,-99.31"/>
<text text-anchor="middle" x="669.62" y="-57.2" font-family="Times New Roman,serif" font-size="14.00">Transcription request</text>
</g>
<!-- NLP&#45;&gt;RPC2 -->
<g id="edge12" class="edge">
<title>NLP&#45;&gt;RPC2</title>
<path fill="none" stroke="black" d="M750.92,-25.68C788.08,-30.9 828.93,-39.73 840.37,-54 851.71,-68.16 840.64,-79.03 822.68,-87.06"/>
<polygon fill="black" stroke="black" points="821.53,-83.76 813.51,-90.68 824.09,-90.27 821.53,-83.76"/>
<text text-anchor="middle" x="891.44" y="-57.2" font-family="Times New Roman,serif" font-size="14.00">Diagnosis results</text>
</g>
<!-- WC -->
<g id="node6" class="node">
<title>WC</title>
<ellipse fill="none" stroke="black" cx="474.37" cy="-283.5" rx="90.25" ry="18"/>
<text text-anchor="middle" x="474.37" y="-278.45" font-family="Times New Roman,serif" font-size="14.00">WebClient (Browser)</text>
</g>
<!-- WC&#45;&gt;WS -->
<g id="edge1" class="edge">
<title>WC&#45;&gt;WS</title>
<path fill="none" stroke="black" d="M408.93,-270.77C382.11,-262.88 360.24,-250.3 374.12,-231 379.73,-223.2 387.16,-217.12 395.48,-212.37"/>
<polygon fill="black" stroke="black" points="396.81,-215.62 404.24,-208.07 393.72,-209.34 396.81,-215.62"/>
<text text-anchor="middle" x="427.74" y="-234.2" font-family="Times New Roman,serif" font-size="14.00">Interview recording</text>
</g>
<!-- WS&#45;&gt;RPC1 -->
<g id="edge3" class="edge">
<title>WS&#45;&gt;RPC1</title>
<path fill="none" stroke="black" stroke-dasharray="5,2" d="M409.33,-181.77C376.61,-175.6 337.07,-167.61 301.87,-159 265.1,-150.01 224.52,-138.29 191.55,-128.31"/>
<polygon fill="black" stroke="black" points="192.71,-125.01 182.12,-125.44 190.67,-131.7 192.71,-125.01"/>
<text text-anchor="middle" x="359.62" y="-145.7" font-family="Times New Roman,serif" font-size="14.00">Transcription request</text>
</g>
<!-- WS&#45;&gt;DB -->
<g id="edge2" class="edge">
<title>WS&#45;&gt;DB</title>
<path fill="none" stroke="black" d="M459.2,-176.91C444.95,-164.2 425.28,-146.66 409.28,-132.39"/>
<polygon fill="black" stroke="black" points="411.75,-129.9 401.95,-125.86 407.09,-135.13 411.75,-129.9"/>
<text text-anchor="middle" x="479.43" y="-145.7" font-family="Times New Roman,serif" font-size="14.00">Save recording</text>
</g>
<!-- WS&#45;&gt;RPC2 -->
<g id="edge8" class="edge">
<title>WS&#45;&gt;RPC2</title>
<path fill="none" stroke="black" stroke-dasharray="5,2" d="M563.61,-185.61C597.1,-180.45 635.35,-172.19 668.37,-159 685.42,-152.19 702.68,-141.47 716.71,-131.56"/>
<polygon fill="black" stroke="black" points="718.62,-134.51 724.64,-125.79 714.49,-128.85 718.62,-134.51"/>
<text text-anchor="middle" x="746.61" y="-145.7" font-family="Times New Roman,serif" font-size="14.00">Diagnosis request</text>
</g>
<!-- WS&#45;&gt;WC -->
<g id="edge14" class="edge">
<title>WS&#45;&gt;WC</title>
<path fill="none" stroke="black" d="M480.71,-213.19C481.75,-223.22 482.5,-236.09 481.37,-247.5 481.16,-249.58 480.89,-251.73 480.57,-253.88"/>
<polygon fill="black" stroke="black" points="477.13,-253.2 478.81,-263.67 484.02,-254.44 477.13,-253.2"/>
<text text-anchor="middle" x="543.81" y="-234.2" font-family="Times New Roman,serif" font-size="14.00">Diagnosis presentation</text>
</g>
</g>
</svg>
