<?xml version="1.0" encoding="UTF-8" standalone="no"?>
<!DOCTYPE svg PUBLIC "-//W3C//DTD SVG 1.1//EN"
 "http://www.w3.org/Graphics/SVG/1.1/DTD/svg11.dtd">
<!-- Generated by graphviz version 12.2.1 (20241206.2353)
 -->
<!-- Pages: 1 -->
<svg width="561pt" height="266pt"
 viewBox="0.00 0.00 560.88 266.33" xmlns="http://www.w3.org/2000/svg" xmlns:xlink="http://www.w3.org/1999/xlink">
<g id="graph0" class="graph" transform="scale(1 1) rotate(0) translate(4 262.33)">
<polygon fill="white" stroke="none" points="-4,4 -4,-262.33 556.88,-262.33 556.88,4 -4,4"/>
<g id="clust1" class="cluster">
<title>cluster_webapp</title>
<polygon fill="none" stroke="black" stroke-dasharray="5,2" points="184.75,-85.33 184.75,-250.33 422.75,-250.33 422.75,-85.33 184.75,-85.33"/>
<text text-anchor="middle" x="303.75" y="-233.03" font-family="Times New Roman,serif" font-size="14.00">Web App</text>
</g>
<!-- WC -->
<g id="node1" class="node">
<title>WC</title>
<ellipse fill="none" stroke="black" cx="285.75" cy="-199.83" rx="90.25" ry="18"/>
<text text-anchor="middle" x="285.75" y="-194.78" font-family="Times New Roman,serif" font-size="14.00">WebClient (Browser)</text>
</g>
<!-- WS -->
<g id="node2" class="node">
<title>WS</title>
<ellipse fill="none" stroke="black" cx="290.75" cy="-111.33" rx="98.44" ry="18"/>
<text text-anchor="middle" x="290.75" y="-106.28" font-family="Times New Roman,serif" font-size="14.00">WebServer (Flask App)</text>
</g>
<!-- WC&#45;&gt;WS -->
<g id="edge1" class="edge">
<title>WC&#45;&gt;WS</title>
<path fill="none" stroke="black" d="M237.75,-184.4C217.88,-175.75 201.62,-163.3 212,-147.33 215.85,-141.4 220.96,-136.47 226.74,-132.37"/>
<polygon fill="black" stroke="black" points="228.25,-135.54 234.99,-127.37 224.62,-129.56 228.25,-135.54"/>
<text text-anchor="middle" x="237.88" y="-150.53" font-family="Times New Roman,serif" font-size="14.00">Interview</text>
</g>
<!-- WC&#45;&gt;WS -->
<!-- WS&#45;&gt;WC -->
<g id="edge10" class="edge">
<title>WS&#45;&gt;WC</title>
<path fill="none" stroke="black" d="M321.92,-128.87C335.07,-138.18 345.87,-150.59 338.75,-163.83 336.36,-168.26 333.14,-172.23 329.46,-175.75"/>
<polygon fill="black" stroke="black" points="327.54,-172.8 321.98,-181.82 331.95,-178.24 327.54,-172.8"/>
<text text-anchor="middle" x="368.01" y="-150.53" font-family="Times New Roman,serif" font-size="14.00">Diagnosis</text>
</g>
<!-- ASR -->
<g id="node3" class="node">
<title>ASR</title>
<polygon fill="none" stroke="black" points="137.5,-40.83 0,-40.83 0,-4.83 137.5,-4.83 137.5,-40.83"/>
<text text-anchor="middle" x="68.75" y="-17.78" font-family="Times New Roman,serif" font-size="14.00">ASR (Speech&#45;to&#45;Text)</text>
</g>
<!-- WS&#45;&gt;ASR -->
<g id="edge4" class="edge">
<title>WS&#45;&gt;ASR</title>
<path fill="none" stroke="black" stroke-dasharray="5,2" d="M250.29,-94.56C214.97,-80.8 163.37,-60.69 124.2,-45.43"/>
<polygon fill="black" stroke="black" points="125.51,-42.19 114.92,-41.82 122.97,-48.71 125.51,-42.19"/>
<text text-anchor="middle" x="236.01" y="-62.03" font-family="Times New Roman,serif" font-size="14.00">Transcription</text>
</g>
<!-- DB -->
<g id="node4" class="node">
<title>DB</title>
<path fill="none" stroke="black" d="M353.88,-37.55C353.88,-39.36 325.58,-40.83 290.75,-40.83 255.92,-40.83 227.62,-39.36 227.62,-37.55 227.62,-37.55 227.62,-8.1 227.62,-8.1 227.62,-6.29 255.92,-4.83 290.75,-4.83 325.58,-4.83 353.88,-6.29 353.88,-8.1 353.88,-8.1 353.88,-37.55 353.88,-37.55"/>
<path fill="none" stroke="black" d="M353.88,-37.55C353.88,-35.75 325.58,-34.28 290.75,-34.28 255.92,-34.28 227.62,-35.75 227.62,-37.55"/>
<text text-anchor="middle" x="290.75" y="-17.78" font-family="Times New Roman,serif" font-size="14.00">Document Database</text>
</g>
<!-- WS&#45;&gt;DB -->
<g id="edge3" class="edge">
<title>WS&#45;&gt;DB</title>
<path fill="none" stroke="black" d="M290.75,-93.24C290.75,-81.58 290.75,-65.87 290.75,-52.35"/>
<polygon fill="black" stroke="black" points="294.25,-52.69 290.75,-42.69 287.25,-52.69 294.25,-52.69"/>
<text text-anchor="middle" x="318.88" y="-62.03" font-family="Times New Roman,serif" font-size="14.00">Recording</text>
</g>
<!-- NLP -->
<g id="node5" class="node">
<title>NLP</title>
<polygon fill="none" stroke="black" points="552.88,-40.83 444.62,-40.83 444.62,-4.83 552.88,-4.83 552.88,-40.83"/>
<text text-anchor="middle" x="498.75" y="-17.78" font-family="Times New Roman,serif" font-size="14.00">NLP (Diagnosis)</text>
</g>
<!-- WS&#45;&gt;NLP -->
<g id="edge7" class="edge">
<title>WS&#45;&gt;NLP</title>
<path fill="none" stroke="black" d="M339.08,-90.23C371.29,-76.84 413.59,-59.24 446.56,-45.53"/>
<polygon fill="black" stroke="black" points="338.19,-86.81 330.3,-93.88 340.88,-93.27 338.19,-86.81"/>
<polygon fill="black" stroke="black" points="447.63,-48.88 455.51,-41.81 444.94,-42.42 447.63,-48.88"/>
<text text-anchor="middle" x="440.38" y="-62.03" font-family="Times New Roman,serif" font-size="14.00">Diagnosis</text>
</g>
<!-- ASR&#45;&gt;DB -->
<g id="edge5" class="edge">
<title>ASR&#45;&gt;DB</title>
<path fill="none" stroke="black" d="M149.02,-4C150.84,-3.75 152.65,-3.53 154.44,-3.33 179.28,-0.54 185.87,-0.35 210.69,-3.33 212.46,-3.54 214.25,-3.78 216.05,-4.04"/>
<polygon fill="black" stroke="black" points="148.58,-0.52 139.23,-5.5 149.65,-7.44 148.58,-0.52"/>
<polygon fill="black" stroke="black" points="215.27,-7.46 225.71,-5.65 216.42,-0.55 215.27,-7.46"/>
<text text-anchor="middle" x="182.56" y="-6.53" font-family="Times New Roman,serif" font-size="14.00">Recording</text>
</g>
<!-- ASR&#45;&gt;DB -->
<g id="edge6" class="edge">
<title>ASR&#45;&gt;DB</title>
<path fill="none" stroke="black" d="M137.78,-22.83C162.61,-22.83 190.73,-22.83 216.03,-22.83"/>
<polygon fill="black" stroke="black" points="215.92,-26.33 225.92,-22.83 215.92,-19.33 215.92,-26.33"/>
<text text-anchor="middle" x="182.56" y="-29.03" font-family="Times New Roman,serif" font-size="14.00">Transcription</text>
</g>
<!-- DB&#45;&gt;NLP -->
<!-- NLP&#45;&gt;DB -->
<g id="edge9" class="edge">
<title>NLP&#45;&gt;DB</title>
<path fill="none" stroke="black" d="M433.09,-22.83C411.66,-22.83 387.7,-22.83 365.64,-22.83"/>
<polygon fill="black" stroke="black" points="432.86,-26.33 442.86,-22.83 432.86,-19.33 432.86,-26.33"/>
<polygon fill="black" stroke="black" points="365.8,-19.33 355.8,-22.83 365.8,-26.33 365.8,-19.33"/>
<text text-anchor="middle" x="399.25" y="-29.03" font-family="Times New Roman,serif" font-size="14.00">Transcription</text>
</g>
</g>
</svg>
